AmstelvarAlpha-XTRA-min_YTSE-min.ufo
<glyph name="numbersign" format="1">
  <advance width="497"/>
  <unicode hex="0023"/>
  <outline>
    <contour>
      <point x="7" y="456" type="line"/>
      <point x="7" y="628" type="line"/>
      <point x="470" y="628" type="line"/>
      <point x="470" y="456" type="line"/>
    </contour>
    <contour>
      <point x="37" y="856" type="line"/>
      <point x="37" y="1028" type="line"/>
      <point x="490" y="1028" type="line"/>
      <point x="490" y="856" type="line"/>
    </contour>
    <contour>
      <point x="20" y="-57" type="line"/>
      <point x="160" y="1528" type="line"/>
      <point x="270" y="1518" type="line"/>
      <point x="130" y="-67" type="line"/>
    </contour>
    <contour>
      <point x="226" y="-57" type="line"/>
      <point x="366" y="1528" type="line"/>
      <point x="476" y="1518" type="line"/>
      <point x="336" y="-67" type="line"/>
    </contour>
  </outline>
</glyph>
<glyph name="percent" format="1">
  <advance width="892"/>
  <unicode hex="0025"/>
  <outline>
    <contour>
      <point x="8" y="1071" type="qcurve" smooth="yes"/>
      <point x="8" y="1296"/>
      <point x="119" y="1520"/>
      <point x="208" y="1520" type="qcurve" smooth="yes"/>
      <point x="297" y="1520"/>
      <point x="407" y="1318"/>
      <point x="407" y="1071" type="qcurve" smooth="yes"/>
      <point x="407" y="838"/>
      <point x="299" y="603"/>
      <point x="210" y="603" type="qcurve" smooth="yes"/>
      <point x="121" y="603"/>
      <point x="8" y="814"/>
    </contour>
    <contour>
      <point x="171" y="1067" type="qcurve" smooth="yes"/>
      <point x="171" y="800"/>
      <point x="186" y="719"/>
      <point x="207" y="719" type="qcurve" smooth="yes"/>
      <point x="230" y="719"/>
      <point x="245" y="788"/>
      <point x="245" y="1066" type="qcurve" smooth="yes"/>
      <point x="245" y="1311"/>
      <point x="230" y="1400"/>
      <point x="208" y="1400" type="qcurve" smooth="yes"/>
      <point x="184" y="1400"/>
      <point x="171" y="1340"/>
    </contour>
    <contour>
      <point x="195" y="25" type="line"/>
      <point x="616" y="1529" type="line"/>
      <point x="708" y="1502" type="line"/>
      <point x="287" y="-2" type="line"/>
    </contour>
    <contour>
      <point x="487" y="424" type="qcurve" smooth="yes"/>
      <point x="487" y="653"/>
      <point x="596" y="891"/>
      <point x="685" y="891" type="qcurve" smooth="yes"/>
      <point x="774" y="891"/>
      <point x="884" y="674"/>
      <point x="884" y="424" type="qcurve" smooth="yes"/>
      <point x="884" y="203"/>
      <point x="776" y="-22"/>
      <point x="687" y="-22" type="qcurve" smooth="yes"/>
      <point x="598" y="-22"/>
      <point x="487" y="180"/>
    </contour>
    <contour>
      <point x="648" y="438" type="qcurve" smooth="yes"/>
      <point x="648" y="175"/>
      <point x="662" y="94"/>
      <point x="688" y="94" type="qcurve" smooth="yes"/>
      <point x="710" y="94"/>
      <point x="722" y="142"/>
      <point x="722" y="437" type="qcurve" smooth="yes"/>
      <point x="722" y="680"/>
      <point x="709" y="771"/>
      <point x="684" y="771" type="qcurve" smooth="yes"/>
      <point x="659" y="771"/>
      <point x="648" y="710"/>
    </contour>
  </outline>
</glyph>
<glyph name="asterisk" format="1">
  <advance width="486"/>
  <unicode hex="002A"/>
  <outline>
    <contour>
      <point x="243" y="961" type="qcurve" smooth="yes"/>
      <point x="208" y="961"/>
      <point x="171" y="1010"/>
      <point x="181" y="1045" type="qcurve" smooth="yes"/>
      <point x="218" y="1186" type="line"/>
      <point x="214" y="1191" type="line"/>
      <point x="113" y="1086" type="line"/>
      <point x="94" y="1064"/>
      <point x="32" y="1066"/>
      <point x="13" y="1100" type="qcurve" smooth="yes"/>
      <point x="-6" y="1134"/>
      <point x="24" y="1191"/>
      <point x="52" y="1198" type="qcurve" smooth="yes"/>
      <point x="186" y="1236" type="line"/>
      <point x="186" y="1241" type="line"/>
      <point x="52" y="1281" type="line"/>
      <point x="24" y="1287"/>
      <point x="-6" y="1345"/>
      <point x="13" y="1379" type="qcurve" smooth="yes"/>
      <point x="32" y="1413"/>
      <point x="94" y="1414"/>
      <point x="113" y="1393" type="qcurve" smooth="yes"/>
      <point x="212" y="1289" type="line"/>
      <point x="217" y="1292" type="line"/>
      <point x="181" y="1434" type="line" smooth="yes"/>
      <point x="171" y="1470"/>
      <point x="210" y="1518"/>
      <point x="243" y="1518" type="qcurve" smooth="yes"/>
      <point x="278" y="1518"/>
      <point x="316" y="1469"/>
      <point x="306" y="1434" type="qcurve" smooth="yes"/>
      <point x="269" y="1292" type="line"/>
      <point x="273" y="1289" type="line"/>
      <point x="373" y="1393" type="line" smooth="yes"/>
      <point x="392" y="1414"/>
      <point x="455" y="1413"/>
      <point x="474" y="1378" type="qcurve" smooth="yes"/>
      <point x="493" y="1345"/>
      <point x="463" y="1287"/>
      <point x="435" y="1281" type="qcurve"/>
      <point x="299" y="1241" type="line"/>
      <point x="301" y="1238" type="line"/>
      <point x="435" y="1198" type="line" smooth="yes"/>
      <point x="463" y="1191"/>
      <point x="493" y="1134"/>
      <point x="474" y="1099" type="qcurve" smooth="yes"/>
      <point x="455" y="1066"/>
      <point x="392" y="1064"/>
      <point x="373" y="1086" type="qcurve" smooth="yes"/>
      <point x="275" y="1191" type="line"/>
      <point x="270" y="1186" type="line"/>
      <point x="306" y="1045" type="line" smooth="yes"/>
      <point x="315" y="1010"/>
      <point x="281" y="961"/>
    </contour>
  </outline>
</glyph>
<glyph name="slash" format="1">
  <advance width="255"/>
  <unicode hex="002F"/>
  <outline>
    <contour>
      <point x="0" y="-145" type="line"/>
      <point x="135" y="1528" type="line"/>
      <point x="245" y="1518" type="line"/>
      <point x="110" y="-155" type="line"/>
    </contour>
  </outline>
</glyph>
<glyph name="three" format="1">
  <advance width="364"/>
  <unicode hex="0033"/>
  <outline>
    <contour>
      <point x="6" y="12" type="qcurve"/>
      <point x="6" y="122" type="line"/>
      <point x="23" y="112"/>
      <point x="55" y="104"/>
      <point x="78" y="104" type="qcurve" smooth="yes"/>
      <point x="126" y="104"/>
      <point x="172" y="207"/>
      <point x="172" y="408" type="qcurve" smooth="yes"/>
      <point x="172" y="576"/>
      <point x="109" y="728"/>
      <point x="71" y="728" type="qcurve" smooth="yes"/>
      <point x="42" y="728" type="line"/>
      <point x="42" y="829" type="line"/>
      <point x="79" y="834" type="line" smooth="yes"/>
      <point x="108" y="838"/>
      <point x="148" y="969"/>
      <point x="148" y="1161" type="qcurve" smooth="yes"/>
      <point x="148" y="1330"/>
      <point x="95" y="1401"/>
      <point x="71" y="1401" type="qcurve" smooth="yes"/>
      <point x="55" y="1401"/>
      <point x="34" y="1392"/>
      <point x="25" y="1382" type="qcurve"/>
      <point x="25" y="1469" type="line"/>
      <point x="43" y="1492"/>
      <point x="105" y="1520"/>
      <point x="153" y="1520" type="qcurve" smooth="yes"/>
      <point x="235" y="1520"/>
      <point x="332" y="1352"/>
      <point x="332" y="1181" type="qcurve" smooth="yes"/>
      <point x="332" y="1027"/>
      <point x="252" y="829"/>
      <point x="171" y="800" type="qcurve"/>
      <point x="171" y="793" type="line"/>
      <point x="256" y="774"/>
      <point x="360" y="585"/>
      <point x="360" y="401" type="qcurve" smooth="yes"/>
      <point x="360" y="218"/>
      <point x="239" y="-20"/>
      <point x="129" y="-20" type="qcurve" smooth="yes"/>
      <point x="93" y="-20"/>
      <point x="32" y="-3"/>
    </contour>
  </outline>
</glyph>
<glyph name="seven" format="1">
  <advance width="360"/>
  <unicode hex="0037"/>
  <outline>
    <contour>
      <point x="4" y="1274" type="line"/>
      <point x="4" y="1500" type="line"/>
      <point x="360" y="1500" type="line"/>
      <point x="360" y="1316" type="line"/>
      <point x="284" y="700" type="line"/>
      <point x="198" y="0" type="line"/>
      <point x="81" y="0" type="line"/>
      <point x="81" y="73" type="line"/>
      <point x="162" y="700" type="line"/>
      <point x="229" y="1315" type="line"/>
      <point x="221" y="1324" type="line"/>
      <point x="86" y="1324" type="line"/>
      <point x="86" y="1274" type="line"/>
    </contour>
  </outline>
</glyph>
<glyph name="question" format="1">
  <advance width="414"/>
  <unicode hex="003F"/>
  <outline>
    <contour>
      <point x="18" y="86" type="qcurve" smooth="yes"/>
      <point x="18" y="129"/>
      <point x="79" y="194"/>
      <point x="126" y="194" type="qcurve" smooth="yes"/>
      <point x="173" y="194"/>
      <point x="234" y="129"/>
      <point x="234" y="86" type="qcurve" smooth="yes"/>
      <point x="234" y="43"/>
      <point x="173" y="-22"/>
      <point x="126" y="-22" type="qcurve" smooth="yes"/>
      <point x="76" y="-22"/>
      <point x="18" y="43"/>
    </contour>
    <contour>
      <point x="50" y="1418" type="line"/>
      <point x="73" y="1456"/>
      <point x="147" y="1515"/>
      <point x="205" y="1515" type="qcurve" smooth="yes"/>
      <point x="288" y="1515"/>
      <point x="409" y="1314"/>
      <point x="409" y="1099" type="qcurve" smooth="yes"/>
      <point x="409" y="884"/>
      <point x="302" y="684"/>
      <point x="205" y="684" type="qcurve" smooth="yes"/>
      <point x="187" y="684"/>
      <point x="169" y="691"/>
      <point x="157" y="697" type="qcurve"/>
      <point x="157" y="315" type="line"/>
      <point x="77" y="315" type="line"/>
      <point x="77" y="614" type="line"/>
      <point x="70" y="773" type="line"/>
      <point x="105" y="808" type="line"/>
      <point x="118" y="800"/>
      <point x="134" y="795"/>
      <point x="156" y="795" type="qcurve" smooth="yes"/>
      <point x="186" y="795"/>
      <point x="221" y="880"/>
      <point x="221" y="1101" type="qcurve" smooth="yes"/>
      <point x="221" y="1313"/>
      <point x="180" y="1404"/>
      <point x="146" y="1404" type="qcurve" smooth="yes"/>
      <point x="128" y="1404"/>
      <point x="97" y="1386"/>
      <point x="82" y="1369" type="qcurve"/>
    </contour>
  </outline>
</glyph>
<glyph name="A" format="1">
  <advance width="492"/>
  <unicode hex="0041"/>
  <outline>
    <contour>
      <point x="-2" y="0" type="line"/>
      <point x="-2" y="100" type="line"/>
      <point x="30" y="100" type="line"/>
      <point x="67" y="531" type="line"/>
      <point x="142" y="1508" type="line"/>
      <point x="324" y="1508" type="line"/>
      <point x="418" y="532" type="line"/>
      <point x="459" y="100" type="line"/>
      <point x="494" y="100" type="line"/>
      <point x="494" y="0" type="line"/>
      <point x="228" y="0" type="line"/>
      <point x="228" y="100" type="line"/>
      <point x="282" y="100" type="line"/>
      <point x="251" y="513" type="line"/>
      <point x="218" y="1055" type="line"/>
      <point x="181" y="512" type="line"/>
      <point x="149" y="100" type="line"/>
      <point x="212" y="100" type="line"/>
      <point x="212" y="0" type="line"/>
    </contour>
    <contour>
      <point x="111" y="448" type="line"/>
      <point x="123" y="557" type="line"/>
      <point x="214" y="557" type="line"/>
      <point x="338" y="557" type="line"/>
      <point x="359" y="448" type="line"/>
    </contour>
  </outline>
</glyph>
<glyph name="C" format="1">
  <advance width="439"/>
  <unicode hex="0043"/>
  <outline>
    <contour>
      <point x="8" y="705" type="qcurve" smooth="yes"/>
      <point x="8" y="1228"/>
      <point x="135" y="1505"/>
      <point x="229" y="1505" type="qcurve" smooth="yes"/>
      <point x="273" y="1505"/>
      <point x="325" y="1454"/>
      <point x="339" y="1406" type="qcurve"/>
      <point x="336" y="1273" type="line"/>
      <point x="319" y="1339"/>
      <point x="281" y="1387"/>
      <point x="255" y="1387" type="qcurve" smooth="yes"/>
      <point x="214" y="1387"/>
      <point x="200" y="1279"/>
      <point x="200" y="773" type="qcurve" smooth="yes"/>
      <point x="200" y="319"/>
      <point x="221" y="124"/>
      <point x="267" y="124" type="qcurve" smooth="yes"/>
      <point x="303" y="124"/>
      <point x="337" y="181"/>
      <point x="350" y="290" type="qcurve"/>
      <point x="430" y="264" type="line"/>
      <point x="418" y="139"/>
      <point x="341" y="-15"/>
      <point x="240" y="-15" type="qcurve" smooth="yes"/>
      <point x="130" y="-15"/>
      <point x="8" y="261"/>
    </contour>
    <contour>
      <point x="335" y="1322" type="line"/>
      <point x="335" y="1487" type="line"/>
      <point x="419" y="1487" type="line"/>
      <point x="419" y="1161" type="line"/>
      <point x="335" y="1161" type="line"/>
    </contour>
  </outline>
</glyph>
<glyph name="G" format="1">
  <advance width="450"/>
  <unicode hex="0047"/>
  <outline>
    <contour>
      <point x="8" y="746" type="qcurve" smooth="yes"/>
      <point x="8" y="1211"/>
      <point x="128" y="1505"/>
      <point x="236" y="1505" type="qcurve" smooth="yes"/>
      <point x="278" y="1505"/>
      <point x="331" y="1454"/>
      <point x="344" y="1405" type="qcurve"/>
      <point x="336" y="1285" type="line"/>
      <point x="330" y="1330"/>
      <point x="285" y="1387"/>
      <point x="260" y="1387" type="qcurve" smooth="yes"/>
      <point x="223" y="1387"/>
      <point x="200" y="1246"/>
      <point x="200" y="778" type="qcurve" smooth="yes"/>
      <point x="200" y="318"/>
      <point x="218" y="111"/>
      <point x="280" y="111" type="qcurve" smooth="yes"/>
      <point x="315" y="111"/>
      <point x="359" y="132"/>
      <point x="369" y="157" type="qcurve"/>
      <point x="415" y="122" type="line"/>
      <point x="403" y="55"/>
      <point x="315" y="-14"/>
      <point x="244" y="-14" type="qcurve" smooth="yes"/>
      <point x="125" y="-14"/>
      <point x="8" y="295"/>
    </contour>
    <contour>
      <point x="230" y="625" type="line"/>
      <point x="230" y="725" type="line"/>
      <point x="436" y="725" type="line"/>
      <point x="436" y="625" type="line"/>
      <point x="415" y="625" type="line"/>
      <point x="415" y="122" type="line"/>
      <point x="249" y="54" type="line"/>
      <point x="249" y="625" type="line"/>
    </contour>
    <contour>
      <point x="335" y="1325" type="line"/>
      <point x="335" y="1487" type="line"/>
      <point x="419" y="1487" type="line"/>
      <point x="419" y="1161" type="line"/>
      <point x="335" y="1161" type="line"/>
    </contour>
  </outline>
</glyph>
<glyph name="H" format="1">
  <advance width="532"/>
  <unicode hex="0048"/>
  <outline>
    <contour>
      <point x="8" y="0" type="line"/>
      <point x="8" y="100" type="line"/>
      <point x="46" y="100" type="line"/>
      <point x="48" y="754" type="line"/>
      <point x="46" y="1386" type="line"/>
      <point x="8" y="1386" type="line"/>
      <point x="8" y="1500" type="line"/>
      <point x="254" y="1500" type="line"/>
      <point x="254" y="1386" type="line"/>
      <point x="226" y="1386" type="line"/>
      <point x="224" y="754" type="line"/>
      <point x="226" y="100" type="line"/>
      <point x="254" y="100" type="line"/>
      <point x="254" y="0" type="line"/>
    </contour>
    <contour>
      <point x="146" y="724" type="line"/>
      <point x="146" y="848" type="line"/>
      <point x="266" y="848" type="line"/>
      <point x="385" y="848" type="line"/>
      <point x="385" y="724" type="line"/>
      <point x="266" y="724" type="line"/>
    </contour>
    <contour>
      <point x="278" y="0" type="line"/>
      <point x="278" y="100" type="line"/>
      <point x="308" y="100" type="line"/>
      <point x="310" y="754" type="line"/>
      <point x="308" y="1386" type="line"/>
      <point x="278" y="1386" type="line"/>
      <point x="278" y="1500" type="line"/>
      <point x="524" y="1500" type="line"/>
      <point x="524" y="1386" type="line"/>
      <point x="488" y="1386" type="line"/>
      <point x="486" y="754" type="line"/>
      <point x="488" y="100" type="line"/>
      <point x="524" y="100" type="line"/>
      <point x="524" y="0" type="line"/>
    </contour>
  </outline>
</glyph>
<glyph name="Q" format="1">
  <advance width="512"/>
  <unicode hex="0051"/>
  <outline>
    <contour>
      <point x="8" y="748" type="qcurve" smooth="yes"/>
      <point x="8" y="1152"/>
      <point x="114" y="1515"/>
      <point x="243" y="1515" type="qcurve" smooth="yes"/>
      <point x="372" y="1515"/>
      <point x="477" y="1168"/>
      <point x="477" y="756" type="qcurve" smooth="yes"/>
      <point x="477" y="344"/>
      <point x="364" y="-5"/>
      <point x="243" y="-5" type="qcurve" smooth="yes"/>
      <point x="122" y="-5"/>
      <point x="8" y="344"/>
    </contour>
    <contour>
      <point x="199" y="779" type="qcurve" smooth="yes"/>
      <point x="199" y="331"/>
      <point x="212" y="114"/>
      <point x="240" y="114" type="qcurve" smooth="yes"/>
      <point x="268" y="114"/>
      <point x="284" y="280"/>
      <point x="284" y="754" type="qcurve" smooth="yes"/>
      <point x="284" y="1228"/>
      <point x="264" y="1380"/>
      <point x="240" y="1380" type="qcurve" smooth="yes"/>
      <point x="216" y="1380"/>
      <point x="199" y="1227"/>
    </contour>
    <contour>
      <point x="23" y="-184" type="line"/>
      <point x="58" y="-91"/>
      <point x="160" y="1"/>
      <point x="210" y="1" type="qcurve"/>
      <point x="397" y="-83" type="line"/>
      <point x="426" y="-56"/>
      <point x="444" y="-40"/>
      <point x="464" y="2" type="qcurve"/>
      <point x="518" y="-38" type="line"/>
      <point x="488" y="-119"/>
      <point x="401" y="-229"/>
      <point x="321" y="-229" type="qcurve"/>
      <point x="149" y="-137" type="line"/>
      <point x="118" y="-152"/>
      <point x="106" y="-180"/>
      <point x="73" y="-232" type="qcurve"/>
    </contour>
    <contour>
      <point x="141" y="-118" type="line"/>
      <point x="234" y="35" type="line"/>
      <point x="240" y="51"/>
      <point x="250" y="65"/>
      <point x="264" y="77" type="qcurve"/>
      <point x="289" y="68"/>
      <point x="312" y="57"/>
      <point x="334" y="42" type="qcurve"/>
      <point x="322" y="27"/>
      <point x="312" y="11"/>
      <point x="303" y="-5" type="qcurve" smooth="yes"/>
      <point x="215" y="-158" type="line"/>
    </contour>
  </outline>
</glyph>
<glyph name="T" format="1">
  <advance width="505"/>
  <unicode hex="0054"/>
  <outline>
    <contour>
      <point x="6" y="1141" type="line"/>
      <point x="6" y="1500" type="line"/>
      <point x="499" y="1500" type="line"/>
      <point x="499" y="1141" type="line"/>
      <point x="399" y="1141" type="line"/>
      <point x="399" y="1406" type="line"/>
      <point x="342" y="1406" type="line"/>
      <point x="335" y="1405" type="line"/>
      <point x="338" y="754" type="line"/>
      <point x="340" y="100" type="line"/>
      <point x="377" y="100" type="line"/>
      <point x="377" y="0" type="line"/>
      <point x="121" y="0" type="line"/>
      <point x="121" y="100" type="line"/>
      <point x="160" y="100" type="line"/>
      <point x="162" y="754" type="line"/>
      <point x="166" y="1404" type="line"/>
      <point x="153" y="1406" type="line"/>
      <point x="106" y="1406" type="line"/>
      <point x="106" y="1141" type="line"/>
    </contour>
  </outline>
</glyph>
<glyph name="V" format="1">
  <advance width="518"/>
  <unicode hex="0056"/>
  <outline>
    <contour>
      <point x="-6" y="1394" type="line"/>
      <point x="-6" y="1500" type="line"/>
      <point x="258" y="1500" type="line"/>
      <point x="258" y="1394" type="line"/>
      <point x="214" y="1394" type="line"/>
      <point x="246" y="977" type="line"/>
      <point x="276" y="595" type="line"/>
      <point x="308" y="982" type="line"/>
      <point x="341" y="1394" type="line"/>
      <point x="294" y="1394" type="line"/>
      <point x="294" y="1500" type="line"/>
      <point x="524" y="1500" type="line"/>
      <point x="524" y="1394" type="line"/>
      <point x="482" y="1394" type="line"/>
      <point x="436" y="972" type="line"/>
      <point x="338" y="0" type="line"/>
      <point x="176" y="0" type="line"/>
      <point x="70" y="961" type="line"/>
      <point x="26" y="1394" type="line"/>
    </contour>
  </outline>
</glyph>
<glyph name="asciicircum" format="1">
  <advance width="440"/>
  <unicode hex="005E"/>
  <outline>
    <contour>
      <point x="220" y="1524" type="qcurve"/>
      <point x="220" y="1524"/>
      <point x="376" y="1201"/>
      <point x="404" y="1125" type="qcurve" smooth="yes"/>
      <point x="411" y="1106"/>
      <point x="310" y="1063"/>
      <point x="304" y="1075" type="qcurve" smooth="yes"/>
      <point x="245" y="1197"/>
      <point x="220" y="1267"/>
      <point x="220" y="1267" type="qcurve"/>
      <point x="220" y="1267"/>
      <point x="195" y="1197"/>
      <point x="136" y="1075" type="qcurve" smooth="yes"/>
      <point x="128" y="1059"/>
      <point x="27" y="1102"/>
      <point x="36" y="1125" type="qcurve" smooth="yes"/>
      <point x="65" y="1200"/>
      <point x="220" y="1524"/>
    </contour>
  </outline>
</glyph>
<glyph name="grave" format="1">
  <advance width="330"/>
  <unicode hex="0060"/>
  <outline>
    <contour>
      <point x="40" y="1354" type="qcurve" smooth="yes"/>
      <point x="40" y="1396"/>
      <point x="78" y="1440"/>
      <point x="118" y="1439" type="qcurve"/>
      <point x="158" y="1440"/>
      <point x="209" y="1344"/>
      <point x="218" y="1300" type="qcurve" smooth="yes"/>
      <point x="268" y="1060" type="line"/>
      <point x="192" y="1060" type="line"/>
      <point x="90" y="1230" type="line" smooth="yes"/>
      <point x="72" y="1260"/>
      <point x="40" y="1328"/>
    </contour>
  </outline>
</glyph>
<glyph name="b" format="1">
  <advance width="493"/>
  <unicode hex="0062"/>
  <outline>
    <contour>
      <point x="-14" y="1410" type="line"/>
      <point x="-14" y="1500" type="line"/>
      <point x="161" y="1500" type="line"/>
      <point x="188" y="1500" type="line"/>
      <point x="218" y="1470" type="line"/>
      <point x="210" y="428" type="line"/>
      <point x="205" y="68" type="line"/>
      <point x="126" y="0" type="line"/>
      <point x="54" y="0" type="line"/>
      <point x="54" y="427" type="line"/>
      <point x="43" y="1410" type="line"/>
    </contour>
    <contour>
      <point x="168" y="109" type="qcurve"/>
      <point x="206" y="171" type="line"/>
      <point x="206" y="133"/>
      <point x="218" y="100"/>
      <point x="242" y="100" type="qcurve" smooth="yes"/>
      <point x="274" y="100"/>
      <point x="301" y="217"/>
      <point x="301" y="505" type="qcurve" smooth="yes"/>
      <point x="301" y="793"/>
      <point x="279" y="884"/>
      <point x="258" y="884" type="qcurve" smooth="yes"/>
      <point x="237" y="884"/>
      <point x="217" y="856"/>
      <point x="213" y="818" type="qcurve"/>
      <point x="175" y="872" type="line"/>
      <point x="199" y="937"/>
      <point x="261" y="1020"/>
      <point x="323" y="1021" type="qcurve"/>
      <point x="399" y="1020"/>
      <point x="485" y="799"/>
      <point x="485" y="530" type="qcurve" smooth="yes"/>
      <point x="485" y="261"/>
      <point x="388" y="-12"/>
      <point x="300" y="-12" type="qcurve" smooth="yes"/>
      <point x="253" y="-12"/>
      <point x="182" y="50"/>
    </contour>
  </outline>
</glyph>
<glyph name="r" format="1">
  <advance width="416"/>
  <unicode hex="0072"/>
  <outline>
    <contour>
      <point x="6" y="0" type="line"/>
      <point x="6" y="90" type="line"/>
      <point x="49" y="90" type="line"/>
      <point x="51" y="527" type="line"/>
      <point x="49" y="910" type="line"/>
      <point x="6" y="910" type="line"/>
      <point x="6" y="1000" type="line"/>
      <point x="179" y="1000" type="line"/>
      <point x="214" y="973" type="line"/>
      <point x="219" y="872" type="line"/>
      <point x="216" y="527" type="line"/>
      <point x="219" y="90" type="line"/>
      <point x="266" y="90" type="line"/>
      <point x="266" y="0" type="line"/>
    </contour>
    <contour>
      <point x="143" y="739" type="qcurve"/>
      <point x="109" y="800" type="line"/>
      <point x="124" y="883"/>
      <point x="253" y="1010"/>
      <point x="357" y="1010" type="qcurve" smooth="yes"/>
      <point x="406" y="1010" type="line"/>
      <point x="406" y="747" type="line"/>
      <point x="307" y="747" type="line"/>
      <point x="307" y="887" type="line"/>
      <point x="249" y="887"/>
      <point x="174" y="807"/>
    </contour>
  </outline>
</glyph>
<glyph name="v" format="1">
  <advance width="476"/>
  <unicode hex="0076"/>
  <outline>
    <contour>
      <point x="-30" y="910" type="line"/>
      <point x="-30" y="1000" type="line"/>
      <point x="214" y="1000" type="line"/>
      <point x="214" y="910" type="line"/>
      <point x="178" y="910" type="line"/>
      <point x="225" y="621" type="line"/>
      <point x="253" y="396" type="line"/>
      <point x="280" y="660" type="line"/>
      <point x="321" y="910" type="line"/>
      <point x="260" y="910" type="line"/>
      <point x="260" y="1000" type="line"/>
      <point x="466" y="1000" type="line"/>
      <point x="466" y="910" type="line"/>
      <point x="432" y="910" type="line"/>
      <point x="386" y="648" type="line"/>
      <point x="294" y="-8" type="line"/>
      <point x="172" y="-8" type="line"/>
      <point x="97" y="471" type="line"/>
      <point x="15" y="910" type="line"/>
    </contour>
  </outline>
</glyph>
<glyph name="y" format="1">
  <advance width="456"/>
  <unicode hex="0079"/>
  <outline>
    <contour>
      <point x="-30" y="910" type="line"/>
      <point x="-30" y="1000" type="line"/>
      <point x="214" y="1000" type="line"/>
      <point x="214" y="910" type="line"/>
      <point x="178" y="910" type="line"/>
      <point x="225" y="621" type="line"/>
      <point x="253" y="396" type="line"/>
      <point x="286" y="659" type="line"/>
      <point x="321" y="910" type="line"/>
      <point x="260" y="910" type="line"/>
      <point x="260" y="1000" type="line"/>
      <point x="466" y="1000" type="line"/>
      <point x="466" y="910" type="line"/>
      <point x="432" y="910" type="line"/>
      <point x="385" y="647" type="line"/>
      <point x="268" y="-175" type="line" smooth="yes"/>
      <point x="243" y="-351"/>
      <point x="101" y="-450"/>
      <point x="35" y="-450" type="qcurve" smooth="yes"/>
      <point x="-23" y="-450" type="line"/>
      <point x="-23" y="-350" type="line"/>
      <point x="1" y="-350" type="line" smooth="yes"/>
      <point x="83" y="-350"/>
      <point x="151" y="-257"/>
      <point x="164" y="-155" type="qcurve" smooth="yes"/>
      <point x="183" y="-8" type="line"/>
      <point x="101" y="469" type="line"/>
      <point x="15" y="910" type="line"/>
    </contour>
  </outline>
</glyph>
